<svg id="Vector" xmlns="http://www.w3.org/2000/svg" width="1000" height="237" viewBox="0 0 1000 237">
  <metadata><?xpacket begin="﻿" id="W5M0MpCehiHzreSzNTczkc9d"?>
<x:xmpmeta xmlns:x="adobe:ns:meta/" x:xmptk="Adobe XMP Core 5.6-c140 79.160451, 2017/05/06-01:08:21        ">
   <rdf:RDF xmlns:rdf="http://www.w3.org/1999/02/22-rdf-syntax-ns#">
      <rdf:Description rdf:about=""/>
   </rdf:RDF>
</x:xmpmeta>
                                                                                                    
                                                                                                    
                                                                                                    
                                                                                                    
                                                                                                    
                                                                                                    
                                                                                                    
                                                                                                    
                                                                                                    
                                                                                                    
                                                                                                    
                                                                                                    
                                                                                                    
                                                                                                    
                                                                                                    
                                                                                                    
                                                                                                    
                                                                                                    
                                                                                                    
                                                                                                    
                           
<?xpacket end="w"?></metadata>
<defs>
    <style>
      .cls-1, .cls-3 {
        fill-rule: evenodd;
      }

      .cls-1 {
        opacity: 0.9;
      }

      .cls-2, .cls-3 {
        fill: #fff;
      }
    </style>
  </defs>
  <path class="cls-1" d="M246-1h754V237H246V-1Zm754,90.709s-34.508,0-34.508,28.291S1000,146.291,1000,146.291"/>
  <path class="cls-1" d="M0-1H246V237H0V-1ZM0,89.719s34.531,0,34.531,28.281S0,146.281,0,146.281"/>
  <rect class="cls-2" x="237" y="25" width="9" height="186"/>
  <path id="Pencil" class="cls-3" d="M68.618,151.684L140,80l22.242,22.413-71.481,71.43ZM145,76l22,22,17.33-17.752s5.03-4.384-1.3-10.4S172,60,172,60s-4.532-5.276-8.47-1.852S145,76,145,76ZM58,179h0Zm6-23,22,23s-20.19,7.925-25.452,8.35S52.939,185.8,53,181C53.082,174.516,64,156,64,156Zm28,34M203,89.719"/>
</svg>
