<svg id="Vector" xmlns="http://www.w3.org/2000/svg" width="1000" height="237" viewBox="0 0 1000 237">
  <metadata><?xpacket begin="﻿" id="W5M0MpCehiHzreSzNTczkc9d"?>
<x:xmpmeta xmlns:x="adobe:ns:meta/" x:xmptk="Adobe XMP Core 5.6-c140 79.160451, 2017/05/06-01:08:21        ">
   <rdf:RDF xmlns:rdf="http://www.w3.org/1999/02/22-rdf-syntax-ns#">
      <rdf:Description rdf:about=""/>
   </rdf:RDF>
</x:xmpmeta>
                                                                                                    
                                                                                                    
                                                                                                    
                                                                                                    
                                                                                                    
                                                                                                    
                                                                                                    
                                                                                                    
                                                                                                    
                                                                                                    
                                                                                                    
                                                                                                    
                                                                                                    
                                                                                                    
                                                                                                    
                                                                                                    
                                                                                                    
                                                                                                    
                                                                                                    
                                                                                                    
                           
<?xpacket end="w"?></metadata>
<defs>
    <style>
      .cls-1, .cls-2 {
        opacity: 0.9;
      }

      .cls-2, .cls-4 {
        fill-rule: evenodd;
      }

      .cls-3, .cls-4 {
        fill: #fff;
      }
    </style>
  </defs>
  <rect class="cls-1" x="245.75" y="-1" width="754.25" height="238"/>
  <path class="cls-2" d="M0-1H246V237H0V-1ZM0,89.719s34.531,0,34.531,28.281S0,146.281,0,146.281"/>
  <rect class="cls-3" x="237" y="25" width="9" height="186"/>
  <path id="Pencil" class="cls-4" d="M69.618,151.684L141,80l22.242,22.413-71.481,71.43ZM146,76l22,22,17.33-17.752s5.03-4.384-1.3-10.4S173,60,173,60s-4.532-5.276-8.47-1.852S146,76,146,76ZM59,179h0Zm6-23,22,23s-20.19,7.925-25.452,8.35S53.939,185.8,54,181C54.082,174.516,65,156,65,156Zm28,34M204,89.719"/>
</svg>
